# xmcd
#
# Track frame offsets: 
#        150
#        12306
#        25453
#        37593
#        50260
#        61589
#        74533
#        87284
#        98898
#        110932
#        119887
#        132505
#        144509
#        155680
#        169391
#        182901
#        192395
#        203477
#        212739
#        226864
#
# Disc length: 3235 seconds
#
# Revision: 0
# Processed by: cddbd v1.5.2PL0 Copyright (c) Steve Scherf et al.
# Submitted via: ExactAudioCopyFreeDBPlugin 1.0
#
DISCID=250ca114
DTITLE=Various Artist - Burlesque:  Absolutely Essential 3 CD Collect
DTITLE=ion [Big 3]
DYEAR=2013
DGENRE=Burlesque
TTITLE0=Little Willie John - Fever
TTITLE1=Sam "The Man" Taylor - Real Gone
TTITLE2=Johnny "Guitar" Watson - Hot Little Mama
TTITLE3=Tommy Ridgley - Jam Up
TTITLE4=Paula Watson - I Love to Ride
TTITLE5=Fluffy Hunter and the Jesse Powell Orchestra - The Walkin' Blues
TTITLE6=Roy Milton - T-Town Twist
TTITLE7=Tiny Bradshaw and His Orchestra - Soft
TTITLE8=Willis "Guitar" Jackson - Gator's Groove
TTITLE9=Joe Clay - Sixteen Chicks
TTITLE10=Louis Prima - Night Train
TTITLE11=Lavern Baker - I Can't Love You Enough
TTITLE12=Red Prysock - Purple Wail
TTITLE13=The Cadets - Stranded in the Jungle
TTITLE14=Carmen McRae - Whatever Lola Wants
TTITLE15=Frankie Lee Sims - She Likes to Boogie Real Low
TTITLE16=Roland Kirk - You Did It, You Did It
TTITLE17=Roy Brown - Let the Four Winds Blow
TTITLE18=Etta James - I Just Want to Make Love to You
TTITLE19=Dr. Horse - Jack, That Cat Was Clean
EXTD=
EXTT0=
EXTT1=
EXTT2=
EXTT3=
EXTT4=
EXTT5=
EXTT6=
EXTT7=
EXTT8=
EXTT9=
EXTT10=
EXTT11=
EXTT12=
EXTT13=
EXTT14=
EXTT15=
EXTT16=
EXTT17=
EXTT18=
EXTT19=
PLAYORDER=
